<svg width="60" height="60" viewBox="0 0 60 60" fill="none" xmlns="http://www.w3.org/2000/svg">
<rect width="60" height="60" rx="30" fill="#4541F1"/>
<path d="M17.2929 40.2929C16.9024 40.6834 16.9024 41.3166 17.2929 41.7071C17.6834 42.0976 18.3166 42.0976 18.7071 41.7071L17.2929 40.2929ZM42 18C42 17.4477 41.5523 17 41 17L32 17C31.4477 17 31 17.4477 31 18C31 18.5523 31.4477 19 32 19L40 19L40 27C40 27.5523 40.4477 28 41 28C41.5523 28 42 27.5523 42 27L42 18ZM18.7071 41.7071L41.7071 18.7071L40.2929 17.2929L17.2929 40.2929L18.7071 41.7071Z" fill="#FEFEFE"/>
</svg>
