<svg width="38" height="33" viewBox="0 0 38 33" fill="none" xmlns="http://www.w3.org/2000/svg">
<path fill-rule="evenodd" clip-rule="evenodd" d="M8.01923 0.206608C5.70894 0.584251 7.26398 2.11705 9.17441 2.38362C10.7738 2.60576 13.8394 2.60577 20.437 2.58355C28.4786 2.56134 31.9218 2.65018 32.4327 2.87232C33.6989 3.4499 34.2544 5.67134 34.6098 11.6914C34.7431 13.824 35.0096 17.0229 35.2095 18.8C35.8315 24.5091 35.254 25.0644 27.9455 25.3532C25.1243 25.4643 21.4589 25.6864 19.815 25.8419C12.1289 26.575 7.3528 26.4417 4.68708 25.3754C2.46565 24.4868 2.57677 23.776 2.51012 22.2876C2.35462 19.3998 2.42124 13.513 2.71003 8.15931C2.95439 3.67202 3.24315 2.78346 4.68708 2.11703C5.57565 1.71718 5.26467 1.25069 4.15396 1.29511C2.48789 1.38397 1.19948 1.93932 0.955121 4.5384C0.644121 7.73726 -1.33302 25.3088 2.22127 26.7971C4.55377 27.7746 8.61899 28.7298 10.2184 28.7298C11.3291 28.7298 11.2848 29.9738 10.1741 30.307C7.61941 31.0401 9.41873 32.8172 12.7953 32.9505C19.6373 33.1726 29.6338 32.6173 29.7226 31.9731C29.8115 31.3289 28.3676 29.8627 27.6123 29.8627C27.3679 29.8627 27.2124 29.5739 27.2124 29.1518C27.2124 28.552 27.2124 27.7079 27.901 27.7079C30.8555 27.7079 32.4327 27.5746 33.3213 27.3747C37.6531 26.4417 37.8308 23.5094 37.7864 21.7989C37.6309 14.8014 36.3202 8.11493 36.3202 6.53771C36.298 3.80535 34.6987 1.1174 31.2776 0.628685C29.9448 0.228828 10.3073 -0.171035 8.01923 0.206608ZM19.6151 13.8018C19.3486 13.513 16.7717 10.6473 16.0608 9.91427C15.1723 9.00349 14.2614 9.29224 12.351 11.0472C11.3736 11.958 9.84082 13.3131 8.93003 14.0906C5.7756 16.7563 5.53122 17.9558 8.1303 17.9558C9.01887 17.9558 9.44101 17.6448 12.0845 14.9347C15.5055 11.4248 15.1945 11.447 18.1712 14.3349C20.1705 16.2675 19.9261 16.2898 23.1694 13.7574C25.9684 11.1583 27.5678 9.42555 29.5893 7.40405C31.5886 5.40476 28.523 4.49397 26.9014 5.87125C24.991 7.44847 19.6374 13.7796 19.6151 13.8018ZM26.8125 12.7577C26.4127 13.7796 26.6126 20.5994 27.0569 21.0214C28.1454 22.1099 28.8119 19.7774 28.7452 15.1568C28.7008 12.6022 27.4568 11.0694 26.8125 12.7577ZM13.9505 15.5345C13.2618 17.3561 13.8394 22.3321 15.2389 22.0877C16.6384 21.8434 15.6832 16.3564 15.3722 15.5567C15.1723 14.9791 14.1726 14.9569 13.9505 15.5345ZM22.9916 16.0454C22.614 16.5119 22.2364 19.9551 22.4808 20.8881C22.9028 22.5542 24.6577 21.8211 24.6577 19.9774C24.6577 16.8896 23.858 15.0013 22.9916 16.0454ZM10.3517 18.4224C10.0185 18.7556 10.1518 21.2435 10.5516 21.7767C11.2625 22.7541 11.8845 22.1322 11.8845 20.4216C11.8623 18.6445 11.107 17.6449 10.3517 18.4224ZM18.0157 18.4224C17.4381 18.9999 17.8379 21.3768 18.5488 21.71C19.6817 22.221 20.0594 20.8215 19.3708 18.6C19.2597 18.2002 18.3489 18.0891 18.0157 18.4224ZM23.747 28.0856C24.6356 28.3299 24.3024 29.1297 24.3912 29.8627L14.1282 30.0404C14.1282 29.9738 14.3059 28.2188 14.3059 28.3299C15.0168 28.3077 21.5256 28.0412 22.4142 27.9745C22.7696 27.9301 23.3916 27.9967 23.747 28.0856Z" fill="#4541F1"/>
</svg>
