<svg width="50" height="50" viewBox="0 0 50 50" fill="none" xmlns="http://www.w3.org/2000/svg">
<path d="M30.3336 8.25365C31.2298 6.43138 30.0647 5.11696 28.825 6.56582C27.9138 7.64126 26.6293 10.7033 26.8534 11.2858C27.3761 12.6152 28.81 11.3605 30.3336 8.25365Z" fill="#4541F1"/>
<path d="M21.4164 11.928C22.3574 12.2267 22.6861 11.674 22.5815 9.97126C22.3575 6.61051 21.3268 5.2214 19.5643 5.92342C18.7278 6.25203 20.3708 11.5994 21.4164 11.928Z" fill="#4541F1"/>
<path d="M11.9915 12.7946C14.1125 14.3779 15.5912 15.0799 16.338 14.8111C17.2641 14.4825 17.1148 14.1688 15.4269 12.8395C13.276 11.1217 12.096 10.6139 10.9608 10.9126C10.1542 11.1217 10.4082 11.5997 11.9915 12.7946Z" fill="#4541F1"/>
<path d="M30.3186 13.3621C29.8107 13.9147 29.8108 13.9296 30.1991 14.2134C31.3044 15.02 32.4844 14.3778 37.1596 10.3897C38.4143 9.31422 36.3381 8.46283 34.8743 9.46359C34.1125 9.98637 30.916 12.7198 30.3186 13.3621Z" fill="#4541F1"/>
<path d="M48.0934 40.2778C47.5706 39.8446 47.2271 39.0381 47.0777 37.8879C46.9732 37.0963 45.3003 24.0117 44.5385 20.5614C43.9111 17.6935 42.1486 16.3343 40.7446 16.2596C39.8633 16.2148 39.3554 16.7973 38.997 16.5733C38.0261 15.9609 37.7572 15.6771 36.8012 15.7667C36.3531 15.7966 35.3524 16.0654 35.0088 16.3642C34.7848 16.5434 34.501 16.5434 33.8737 16.3791C30.7967 15.5576 29.4374 18.4852 30.8266 22.9512C31.6182 25.5054 32.7534 24.3852 32.4248 21.3829C31.9916 17.4097 32.0813 16.9915 33.321 17.4396C33.9932 17.6786 34.023 17.7383 33.9633 18.5599C33.8736 19.71 34.6803 24.9677 34.979 25.1619C35.8005 25.6996 36.4278 24.7436 36.159 23.3247C35.4271 19.3515 35.92 16.8869 37.3838 17.2604C37.8319 17.3799 38.1605 17.7831 38.1605 18.2462C38.2352 22.7421 38.28 25.7444 39.6542 25.7444C40.5205 25.7444 40.5205 25.7743 40.3263 21.8758C40.1172 17.7383 40.6101 17.5143 41.342 17.7383C42.4025 18.0669 42.5071 20.5464 42.6117 21.2186C42.6117 21.2335 44.9716 36.7378 44.9716 36.7677C45.2554 40.2927 47.4511 43.3846 48.9896 42.3988C49.3033 42.1897 48.7207 40.8006 48.0934 40.2778Z" fill="#4541F1"/>
<path d="M11.1998 21.4575C11.1998 19.0527 11.2296 18.8586 11.7076 18.3208C12.559 17.3201 12.8279 18.2312 12.9922 22.8317C13.1117 26.1925 13.1266 26.2373 13.8436 26.4464C14.7697 26.7302 14.8593 26.297 14.7547 22.5031C14.6502 19.0826 14.6651 18.9631 15.1132 18.515C16.0393 17.574 16.2335 17.9474 16.6218 21.1887C16.8459 23.1603 16.816 24.2656 16.5023 25.9684C16.4276 26.4016 16.5023 26.536 16.8608 26.6406C17.8316 26.8945 17.9959 26.5659 18.2797 23.7279C18.7726 18.8138 18.1005 17.335 15.3223 17.3051C14.5008 17.2902 13.5598 17.1856 13.2312 17.0363C12.9026 16.9018 12.1557 16.7973 11.5732 16.8122C10.9906 16.8272 10.0347 16.7824 9.46709 16.7077C8.78 16.6181 8.21247 16.6778 7.80918 16.857C6.09146 17.6487 5.79272 18.5747 3.77627 29.4636C3.43273 31.3456 3.04436 33.6907 2.9398 34.6616C2.73069 36.4689 2.10332 38.575 1.26686 40.3077C0.684332 41.5026 0.818791 41.9357 1.74487 41.9357C3.40284 41.9357 4.95625 39.2471 5.32967 35.7071C5.52385 33.8251 5.86741 33.0484 6.46487 28.7466C7.60006 20.4568 7.80912 19.5008 8.64557 18.5299C9.7957 17.2006 9.69114 17.6338 9.84051 25.371C9.84051 25.6996 10.1393 25.9535 10.4679 25.9236C11.0653 25.8788 11.1998 25.3261 11.1998 21.4575Z" fill="#4541F1"/>
<path d="M39.0566 42.0553C38.1156 40.3226 38.0409 40.2629 36.368 40.0836C34.3366 39.8596 32.7683 39.0679 32.0961 37.9328C30.6174 35.4085 28.5412 28.7019 28.7802 27.2231C29.1088 25.1469 29.7959 25.2963 30.9161 27.6563C31.7974 29.5085 32.3799 30.1657 34.4561 31.7191C35.3822 32.4062 35.9498 33.0186 36.3232 33.7505C36.7863 34.6467 36.9505 34.796 37.4883 34.796C39.3255 34.796 37.1298 30.808 34.8893 30.091C33.9333 29.7923 33.6346 29.5383 33.6346 29.0454C33.6346 26.5809 30.0349 23.9072 28.123 24.9528C26.48 25.8639 26.3455 27.2381 27.4807 31.3755C29.6614 39.3069 30.8863 40.9201 34.9789 41.2786C36.5772 41.4279 36.9655 41.6968 37.772 43.2054C38.8774 45.2816 40.147 43.8626 39.8931 43.534C39.8035 43.3996 39.43 42.7424 39.0566 42.0553Z" fill="#4541F1"/>
<path d="M19.2059 25.9239C18.1155 26.4317 16.9355 27.6864 16.4277 28.8813C16.0543 29.7626 15.9497 29.8522 15.1133 29.9866C13.291 30.2704 11.7077 31.6297 11.4687 33.0786C11.2596 34.3631 12.574 35.0203 13.052 33.8553C13.6793 32.3466 14.9191 31.1816 16.2783 30.838C17.1148 30.6289 18.7877 28.956 20.2067 26.9545C21.1029 25.6849 21.7003 27.4026 21.073 29.4041C19.1014 35.5879 16.5472 38.9935 13.6047 39.3221C12.3649 39.4714 12.096 39.7254 11.0355 41.8314C10.3335 43.2056 10.3186 43.2803 10.692 43.5492C11.5882 44.2064 12.4396 43.579 13.0221 41.8464C13.4254 40.6514 13.4703 40.5917 14.3814 40.3676C17.8168 39.4864 19.5196 37.455 21.9842 31.3459C23.8662 26.6857 22.6563 24.3256 19.2059 25.9239Z" fill="#4541F1"/>
</svg>
