<svg width="50" height="51" viewBox="0 0 50 51" fill="none" xmlns="http://www.w3.org/2000/svg">
<path d="M45.8334 25.4998C45.8334 13.9939 36.5059 4.6665 25 4.6665C13.4941 4.6665 4.16669 13.9939 4.16669 25.4998C4.16669 37.0057 13.4941 46.3332 25 46.3332" stroke="#4541F1" stroke-width="2" stroke-linecap="round"/>
<path d="M41.6666 12.3727C39.7193 12.5131 37.2252 13.267 35.4956 15.5056C32.3718 19.549 29.2479 19.8864 27.1654 18.5386C24.0414 16.5169 26.6666 13.2423 23.0002 11.4626C20.6107 10.3028 20.2775 7.14661 21.6075 4.6665" stroke="#4541F1" stroke-width="2" stroke-linejoin="round"/>
<path d="M4.16669 23.4165C5.75523 24.7959 7.98014 26.0586 10.6016 26.0586C16.0176 26.0586 17.1008 27.0934 17.1008 31.2328C17.1008 35.3721 17.1008 35.3721 18.184 38.4765C18.8886 40.4959 19.1349 42.5153 17.7304 44.2498" stroke="#4541F1" stroke-width="2" stroke-linejoin="round"/>
<path d="M41.4558 42.0185L45.8333 46.3335M43.9756 36.0125C43.9756 40.6679 40.1941 44.4416 35.5294 44.4416C30.8648 44.4416 27.0833 40.6679 27.0833 36.0125C27.0833 31.3572 30.8648 27.5835 35.5294 27.5835C40.1941 27.5835 43.9756 31.3572 43.9756 36.0125Z" stroke="#4541F1" stroke-width="2" stroke-linecap="round"/>
</svg>
