<svg width="50" height="51" viewBox="0 0 50 51" fill="none" xmlns="http://www.w3.org/2000/svg">
<path d="M11.8436 18.5138C11.6186 17.4388 11.1311 17.1013 10.8561 17.8138C10.5186 18.7138 10.7811 19.7388 11.3561 19.7388C11.8936 19.7388 12.0311 19.3888 11.8436 18.5138Z" fill="#4541F1"/>
<path d="M37.1311 39.1515C36.2686 38.789 32.806 37.6015 31.481 37.214C29.906 36.7515 29.9561 36.789 29.9061 35.964C29.6811 31.2265 29.4436 30.264 28.9561 30.764C28.8311 30.889 28.8435 33.289 28.981 35.064C29.156 37.264 29.256 37.364 31.9185 38.1515C33.6185 38.6515 34.281 38.9265 34.9436 39.1765C30.5686 39.1765 21.8561 39.189 21.8561 39.139C21.8561 39.114 22.8561 38.6265 24.0686 38.039C26.7685 36.739 26.5061 37.164 26.4186 34.239C26.2811 30.039 26.2936 30.064 24.4811 29.364C23.2061 28.8765 21.7561 28.039 20.9811 27.3515C20.3686 26.814 20.2936 26.7765 20.1436 27.014C19.6811 27.739 17.5561 27.9265 16.4061 27.3515C11.5686 24.889 12.9561 16.2015 17.9686 17.6015C18.6811 17.8015 18.8686 17.814 19.0561 17.6765C19.9811 17.039 26.7936 16.6515 30.7686 16.639C31.1186 16.639 34.3686 17.014 32.0936 16.164C29.8061 15.3015 22.6561 15.2515 19.4186 16.5515C19.1311 16.664 19.1436 15.5265 19.4311 15.239C19.9811 14.714 24.3936 14.0015 28.8186 14.2265C31.0811 14.339 33.1436 14.8265 34.2436 15.164C34.5936 15.2765 34.8436 15.6015 34.8436 15.9765V16.314C34.8436 17.289 35.2186 18.114 35.6561 18.114C35.8561 18.114 35.9936 17.7265 35.8936 17.464C35.7061 16.989 37.7436 15.739 38.7061 15.739C42.1686 15.739 41.9436 21.3515 39.9436 24.564C38.1061 27.514 36.8561 27.989 33.5186 26.989C31.6936 26.439 29.7686 26.3015 24.4186 26.9765C22.8936 27.1765 23.3561 27.764 25.3186 27.7265C30.056 27.6265 32.6436 27.714 32.4061 27.964C32.1311 28.264 30.881 28.939 30.0435 29.2265C28.7185 29.689 29.4185 30.7265 30.5435 30.2015C31.381 29.8015 32.7936 28.9265 33.4061 28.364C33.9311 27.889 33.9811 27.864 34.2436 28.0265C37.2061 29.914 40.3935 27.8515 41.9185 23.039C43.556 17.864 40.2436 13.3015 36.4061 15.464L35.731 15.839L35.5936 15.4265C35.3686 14.739 34.8311 14.239 34.0686 13.964C30.3936 12.689 22.2561 12.6265 18.7436 14.464C18.2686 14.714 17.9686 15.214 17.9686 15.7515C17.9686 15.7765 17.9686 16.8765 17.9686 16.839L17.6186 16.7515C12.6561 15.5015 9.84356 22.5265 13.6436 26.689C15.1686 28.364 17.4561 28.9515 19.6686 28.239L20.4311 27.989L20.8436 28.4015C21.4561 29.0265 23.0436 29.9015 24.2561 30.289L25.3436 30.6265C25.4811 31.7515 25.4936 31.589 25.4186 36.5015C24.5811 36.8765 19.9811 38.9015 19.0436 39.2015C18.0436 39.514 18.3436 40.2265 19.0936 40.2515C20.1061 40.289 23.3686 40.314 27.1561 40.314C32.5436 40.314 37.3936 40.464 37.3811 40.464C37.906 40.5265 38.1311 39.5765 37.1311 39.1515Z" fill="#4541F1"/>
<path d="M20.1811 31.4139C20.0311 30.8139 19.2061 30.9764 19.3061 31.5889C19.4061 32.2139 18.8686 33.1264 18.1811 32.7264C17.4811 32.3389 17.4936 31.1139 18.8936 31.1014C19.0436 31.1014 19.2561 31.0389 19.3561 30.9764C19.8436 30.6514 18.5936 30.3264 17.9186 30.6014C16.9811 30.9889 16.7935 32.6264 17.631 33.0639C18.856 33.6889 20.4811 32.6389 20.1811 31.4139Z" fill="#4541F1"/>
<path d="M18.5561 19.0765C16.7311 17.7515 14.1436 18.7015 14.2436 21.689C14.3561 24.7265 16.3811 26.6265 19.1561 26.289C20.1561 26.164 20.1811 26.139 19.8686 25.1515C18.4061 20.3515 19.2561 19.589 18.5561 19.0765ZM18.1186 25.5515C16.4936 25.014 15.7061 23.814 15.6186 21.7765C15.5311 19.5015 16.0061 18.8015 17.2061 19.414L17.8061 19.714L17.8311 20.7015C17.8561 21.8015 18.2186 23.814 18.6061 24.9265C18.9061 25.8015 18.9061 25.814 18.1186 25.5515Z" fill="#4541F1"/>
<path d="M11.1561 15.0639C11.7561 15.5139 12.0936 15.0764 12.0936 13.8639C12.0936 12.1639 11.6311 11.2764 11.0811 11.9389C10.7936 12.2889 10.8561 14.8389 11.1561 15.0639Z" fill="#4541F1"/>
<path d="M37.006 13.2891C37.9185 13.1391 38.481 11.8641 37.8685 11.3141C37.4935 10.9766 37.331 11.0517 37.4185 11.5267C37.5185 12.0517 37.006 12.8391 36.406 12.5391C35.7935 12.2391 35.7435 11.0016 37.181 10.9891C37.481 10.9891 37.5935 10.8141 37.381 10.6891C36.706 10.2766 35.5685 10.5517 35.1935 11.3892C34.7685 12.3142 35.581 13.5266 37.006 13.2891Z" fill="#4541F1"/>
<path d="M11.7311 16.3016C11.7311 16.6766 13.0935 16.6391 14.631 16.2266C16.0435 15.8516 14.6936 15.4016 13.1686 15.7391C12.1186 15.9766 11.7311 16.1266 11.7311 16.3016Z" fill="#4541F1"/>
<path d="M8.04355 15.9766C7.55605 16.0766 7.46855 16.4516 7.91855 16.5641C8.45605 16.7016 10.6936 16.5516 10.9186 16.3641C11.4186 15.9391 9.41855 15.6766 8.04355 15.9766Z" fill="#4541F1"/>
<path d="M38.2435 32.4018C38.7935 32.5518 38.9685 32.3018 38.9685 31.3893C38.9685 30.2018 38.8935 29.9893 38.4685 29.9893C38.2185 29.9893 38.106 30.0643 38.0435 30.2643C37.856 31.0268 37.9685 32.3268 38.2435 32.4018Z" fill="#4541F1"/>
<path d="M35.4936 26.1263C38.3811 27.6013 41.9061 21.2263 39.8686 18.2013C39.3186 17.3888 38.256 17.0013 37.4185 17.3013C36.6685 17.5763 35.2685 19.0388 35.4185 19.4138C35.581 19.8513 35.2185 22.6388 34.856 23.7388C34.3185 25.3388 34.3811 25.5513 35.4936 26.1263ZM35.5435 24.7138C35.8685 23.7763 36.2186 21.5888 36.2186 20.4763C36.2186 18.6263 38.0811 17.0888 39.0811 18.1013C40.0311 19.0513 39.0685 23.0388 37.481 24.7763C36.5435 25.8013 35.181 25.7638 35.5435 24.7138Z" fill="#4541F1"/>
<path d="M37.8561 35.3016C37.4311 36.4016 37.8687 37.5891 38.6437 37.4266C39.2312 37.3141 39.3436 36.4516 38.9061 35.3891C38.6936 34.8516 38.0436 34.8016 37.8561 35.3016Z" fill="#4541F1"/>
<path d="M41.8311 33.689C41.2936 33.5765 39.3811 33.5391 39.1186 33.6391C38.1686 33.9891 40.3435 34.5391 41.606 34.2641C42.1185 34.1516 42.2686 33.7765 41.8311 33.689Z" fill="#4541F1"/>
<path d="M35.506 33.5639C35.281 33.6514 35.306 33.9389 35.5435 34.0264C36.1435 34.2639 37.9685 34.0764 37.9685 33.7889C37.981 33.5139 36.081 33.3389 35.506 33.5639Z" fill="#4541F1"/>
<path d="M30.9936 18.5145C30.7936 18.152 27.8186 17.927 25.4811 18.1145C23.5311 18.2645 21.681 18.6395 20.781 19.002C19.931 19.352 20.1311 19.8895 20.9811 19.7395C22.1686 19.527 26.7185 19.102 28.0435 19.102C30.581 19.0895 31.2311 18.9645 30.9936 18.5145Z" fill="#4541F1"/>
</svg>
