<?xml version="1.0" encoding="UTF-8"?>
<!DOCTYPE svg PUBLIC "-//W3C//DTD SVG 1.1//EN" "http://www.w3.org/Graphics/SVG/1.1/DTD/svg11.dtd">
<!-- Creator: CorelDRAW -->
<svg xmlns="http://www.w3.org/2000/svg" xml:space="preserve" width="90.4864mm" height="29.6069mm" version="1.1" style="shape-rendering:geometricPrecision; text-rendering:geometricPrecision; image-rendering:optimizeQuality; fill-rule:evenodd; clip-rule:evenodd"
viewBox="0 0 1219.07 398.87"
 xmlns:xlink="http://www.w3.org/1999/xlink"
 xmlns:xodm="http://www.corel.com/coreldraw/odm/2003">
 <defs>
  <style type="text/css">
   <![CDATA[
    .fil0 {fill:#0495F0}
    .fil1 {fill:#FEFEFE;fill-rule:nonzero}
    .fil2 {fill:#070B0E;fill-rule:nonzero}
   ]]>
  </style>
 </defs>
 <g id="Слой_x0020_1">
  <metadata id="CorelCorpID_0Corel-Layer"/>
  <g id="_2760029053968">
   <g>
    <path class="fil0" d="M132.5 38.99c113.29,-65.41 246.6,-46.6 297.76,42.02 51.16,88.61 0.8,213.47 -112.49,278.88 -113.29,65.41 -246.6,46.6 -297.76,-42.02 -51.16,-88.61 -0.79,-213.47 112.49,-278.88z"/>
    <g>
     <path class="fil1" d="M362.11 55.2l-37.1 184.11c-6.14,2.21 -15.02,2.64 -26.64,1.31 -11.88,-1.36 -20.44,-3.79 -25.67,-7.3l20.92 -181.6c12.19,-3.89 26.29,-4.92 42.31,-3.09 12.14,1.39 20.87,3.58 26.18,6.57zm-67.81 211.13c10.07,1.15 17.68,5 22.83,11.54 5.14,6.54 6.89,15 5.24,25.38 -1.77,11.16 -6.18,19.45 -13.21,24.86 -7.04,5.41 -15.6,7.53 -25.67,6.38 -22.48,-2.57 -31.88,-15.41 -28.21,-38.52 1.61,-10.12 6.06,-17.88 13.35,-23.25 7.3,-5.38 15.85,-7.51 25.67,-6.38z"/>
     <path class="fil1" d="M253.94 168.04l-15.4 85.11c-0.63,6.57 -0.37,11.17 0.81,13.81 1.13,2.55 6.25,4.1 11.11,5.34 -5.28,4.96 -8.64,11.59 -10.09,19.9 -1.34,7.69 -1.2,14.28 0.42,19.77 -13.84,-0.41 -26.36,0.35 -34.3,-1.79 -8.02,-2.17 -15.76,-6.25 -23.23,-12.25 -21.48,8.93 -42.51,13.08 -63.08,12.44 -42.52,-1.32 -59.73,-24.35 -51.64,-69.09 3.95,-21.82 12.65,-37.12 26.1,-45.89 13.45,-8.77 32.53,-13.6 57.24,-14.47l44.62 -1.9 2.29 -12.68c1.53,-8.46 0.66,-14.31 -2.61,-17.57 -3.27,-3.26 -9.16,-5.02 -17.66,-5.28l-77.95 0.86 5.24 -38.1c30.78,-7 59.41,-10.08 85.88,-9.26 26.47,0.82 44.55,6.87 54.23,18.15 9.68,11.28 12.35,28.91 8.01,52.92zm-102.36 51.13c-15.61,0.89 -24.77,8.83 -27.48,23.83 -2.71,15 2.65,22.71 16.09,23.13 10.42,0.32 22.1,-0.96 35.04,-3.85l6.47 -1.45 7.92 -43.78 -38.04 2.11z"/>
    </g>
   </g>
   <path class="fil2" d="M607.46 169.12l-1.49 -13.67 -31.53 0 -6.5 13.67 -26.66 0 47.9 -94.72 29.5 0 14.61 94.72 -25.84 0zm-23 -34.5l19.21 0 -3.52 -32.74 -15.7 32.74zm123.18 -60.21l24.17 0 -16.55 94.72 -24.18 0 6.36 -36.4 -26.63 0 -6.43 36.4 -24.17 0 16.69 -94.72 24.17 0 -6.18 35.05 26.61 0 6.13 -35.05zm80.6 94.72l-1.49 -13.67 -31.53 0 -6.5 13.67 -26.66 0 47.9 -94.72 29.5 0 14.61 94.72 -25.84 0zm-23 -34.5l19.21 0 -3.52 -32.74 -15.7 32.74zm-132.87 127.2c-1.08,6.04 -3.4,11.32 -6.97,15.83 -3.56,4.51 -8.1,7.98 -13.6,10.42l12.99 34.37 -24.36 0 -11.12 -30.58 -10.31 -0.09 -5.41 30.67 -24.17 0 16.69 -94.72 37.14 0c9.4,0 17.03,3.34 22.89,10.01 5.86,6.67 7.94,14.7 6.22,24.08zm-46 -11.77l-3.77 21.33 13.94 0c2.95,0.02 5.5,-0.95 7.62,-2.93 2.12,-1.98 3.45,-4.56 3.99,-7.71 0.54,-3.16 0.02,-5.73 -1.56,-7.71 -1.58,-1.98 -3.99,-2.98 -7.24,-2.98l-12.99 0zm119.75 0.27l-35.86 0 -2.44 13.26 32.74 0 -4.06 22.19 -32.47 0 -2.44 13.94 36.53 0 -3.92 22.73 -60.89 0 16.64 -94.72 60.21 0 -4.06 22.6zm34.5 74.15c-10.1,0 -18.27,-2.1 -24.49,-6.29 -6.22,-4.19 -10.33,-9.95 -12.31,-17.25l21.51 -11.1c2.53,7.85 8.3,11.77 17.32,11.77 7.4,0 11.5,-2.17 12.31,-6.5 0.54,-2.98 -1.53,-5.46 -6.22,-7.44 -0.72,-0.36 -4.01,-1.53 -9.88,-3.52 -8.3,-2.8 -14.57,-6.59 -18.81,-11.37 -4.24,-4.78 -5.64,-11.32 -4.2,-19.62 1.53,-8.66 5.66,-15.4 12.38,-20.23 6.72,-4.83 14.68,-7.24 23.88,-7.24 7.94,0 14.77,1.87 20.5,5.62 5.73,3.74 9.95,9.09 12.65,16.03l-20.7 11.09c-2.98,-6.59 -7.76,-9.88 -14.34,-9.88 -5.68,0 -8.93,2.03 -9.74,6.09 -0.54,2.26 0.27,4.13 2.43,5.62 2.17,1.49 6.22,3.27 12.18,5.34 4.15,1.44 7.53,2.8 10.15,4.06 2.62,1.26 5.34,3.09 8.19,5.48 2.84,2.39 4.76,5.41 5.75,9.07 0.99,3.65 1.08,7.96 0.27,12.92 -1.62,8.93 -5.86,15.72 -12.72,20.36 -6.86,4.65 -15.56,6.97 -26.11,6.97zm116.77 -74.15l-35.86 0 -2.44 13.26 32.74 0 -4.06 22.19 -32.47 0 -2.44 13.94 36.53 0 -3.92 22.73 -60.89 0 16.64 -94.72 60.21 0 -4.06 22.6zm58.99 72.12l-1.49 -13.67 -31.53 0 -6.5 13.67 -26.66 0 47.9 -94.72 29.5 0 14.61 94.72 -25.84 0zm-23 -34.5l19.21 0 -3.52 -32.74 -15.7 32.74zm138.69 -26.11c-1.08,6.04 -3.4,11.32 -6.97,15.83 -3.56,4.51 -8.1,7.98 -13.6,10.42l12.99 34.37 -24.36 0 -11.12 -30.58 -10.31 -0.09 -5.41 30.67 -24.17 0 16.69 -94.72 37.14 0c9.4,0 17.03,3.34 22.89,10.01 5.86,6.67 7.94,14.7 6.22,24.08zm-46 -11.77l-3.77 21.33 13.94 0c2.95,0.02 5.5,-0.95 7.62,-2.93 2.12,-1.98 3.45,-4.56 3.99,-7.71 0.54,-3.16 0.02,-5.73 -1.56,-7.71 -1.58,-1.98 -3.99,-2.98 -7.24,-2.98l-12.99 0zm92.69 74.42c-14.52,0 -25.78,-4.87 -33.76,-14.61 -7.98,-9.74 -10.8,-21.78 -8.46,-36.13 2.26,-13.98 8.64,-25.48 19.15,-34.5 10.51,-9.02 22.75,-13.53 36.74,-13.53 9.29,0 17.21,2.01 23.75,6.02 6.54,4.01 11.52,9.54 14.95,16.58l-22.19 11.77c-3.61,-7.13 -9.88,-10.69 -18.81,-10.69 -7.4,0 -13.82,2.37 -19.28,7.1 -5.46,4.74 -8.86,10.94 -10.22,18.61 -1.26,7.49 -0.09,13.64 3.52,18.47 3.61,4.83 9.02,7.24 16.24,7.24 9.11,0 16.51,-3.79 22.19,-11.37l19.89 12.85c-5.05,7.04 -11.39,12.49 -19.01,16.37 -7.62,3.88 -15.85,5.82 -24.69,5.82zm116.14 -96.75l24.17 0 -16.55 94.72 -24.18 0 6.36 -36.4 -26.63 0 -6.43 36.4 -24.17 0 16.69 -94.72 24.17 0 -6.18 35.05 26.61 0 6.13 -35.05z"/>
  </g>
 </g>
</svg>
